<?xml version="1.0" encoding="utf-8"?>
<!-- Generator: Adobe Illustrator 16.0.0, SVG Export Plug-In . SVG Version: 6.00 Build 0)  -->
<!DOCTYPE svg PUBLIC "-//W3C//DTD SVG 1.1 Tiny//EN" "http://www.w3.org/Graphics/SVG/1.1/DTD/svg11-tiny.dtd">
<svg version="1.1" baseProfile="tiny" id="Layer_1" xmlns="http://www.w3.org/2000/svg" xmlns:xlink="http://www.w3.org/1999/xlink"
	 x="0px" y="0px" width="550px" height="550px" viewBox="0 0 550 550" xml:space="preserve">
<g>
	<path fill-rule="evenodd" fill="#FFFFFF" d="M212.91,384.82c0.22-0.36,0.41-0.74,0.54-1.141c14.01-23.68,35.18-35.699,62.28-36.609
		c26.77-0.9,53.57-0.71,80.35-0.931c8.82-0.069,17.66-0.239,26.47,0.17c18.79,0.86,37.59,0.171,56.38,0.44
		c3.96,0.05,5.78-2.55,5.33-6.26c-1.49-12.181-2.27-24.45-5.43-36.42c-10.08-38.23-29.91-69.98-61.521-94.14
		c-15.189-11.62-32.04-19.99-49.819-26.71c-6.91-3.72-14.29-5.78-22.09-6.71c-5.78-0.68-11.61-0.58-17.341-1.36
		c-12.129-1.66-24.56-0.58-36.16,1.04c-5.15,0.71-10.26,0.92-15.44,2.15c-4.37,0.92-8.67,1.6-12,2.71c-2.56,0.86-3.26,1.3-4.55,1.97
		c0.01-0.01,0.01-0.02,0.01-0.02c-0.21,0.09-0.97,0.45-2,0.8c-21.72,7.42-40.93,19.37-57.52,35.15
		c-40.91,38.9-59.73,86.5-54.2,142.83c3.92,40.02,20.2,74.75,48.45,103.68c29.32,30.021,65.34,45.48,106.74,49.14
		c22.99,2.03,45.41-0.81,67.25-8.46c25.021-8.76,47.58-21.67,66.08-40.68c23.61-24.25,39.24-53.04,46.101-86.38
		c1.239-6.01,0.08-7.64-5.99-7.65c-31.49-0.05-62.97-0.05-94.45-0.06c-0.95,0-2.02-0.38-2.75,0.64c0.7,0.55,1.51,0.54,2.36,0.53
		h1.47c-1.5,0.17-2.49,0.84-1.86,3.43c0.67,1.3,1.341,2.601,2,3.91c4.32,6.8,7.04,14.271,9.181,21.99
		c0.67,6.39,0.649,12.79,0.04,19.21c-2.011,11-5.82,21.09-13.65,29.479c-5.27,5.66-11.29,10.28-17.689,14.49
		c-0.551,0.46-1.051,0.97-1.511,1.521c-1.189,1.689-3.029,2.09-4.87,2.47c-20.649,9.47-41.62,10.16-62.89,2.19
		c-23.24-9.811-39-25.931-43.53-51.551c-1.9-10.75,1.55-20.699,4.4-30.76C211.49,387.46,211.95,386.03,212.91,384.82z
		 M292.667,261.833c11.72,0,21.5,9.78,21.5,21.5c0,11.72-9.78,21.5-21.5,21.5s-21.5-9.78-21.5-21.5
		C271.167,271.613,280.947,261.833,292.667,261.833z M430.29,372.46c0.91,0,1.82,0.09,2.729,0.021c-1.029,0.13-2.1,0.01-3.14,0.01
		H359.19C382.89,372.44,406.59,372.5,430.29,372.46z"/>
	<path fill-rule="evenodd" fill="#FBB040" d="M216.591,179.113c-2.064-0.789-2.196-2.828-2.724-4.478
		C199.49,129.73,185.129,84.82,170.902,39.868c-1.031-3.259-1.707-6.79-1.154-10.305c0.327-2.083,0.411-4.599,3.063-5.177
		c2.828-0.616,4.319,1.382,5.216,3.624c2.582,6.447,4.94,12.984,7.53,19.43c8.293,20.636,17.445,40.834,31.377,58.457
		c3.183,4.025,6.571,7.942,10.256,11.508c6.361,6.156,11.283,5.486,16.49-1.645c5.949-8.147,7.818-17.704,10.056-27.23
		c4.422-18.822,4.919-38.05,6.492-57.169c0.326-3.955,1.77-7.361,4.036-10.525c0.848-1.185,1.349-3.064,3.094-2.831
		c2.041,0.273,2.773,2.106,3.229,3.97c1.141,4.665,1.995,9.357,2.257,14.173c1.413,25.962,6.247,51.19,16.608,75.191
		c0.845,1.956,1.872,3.901,3.165,5.584c5.231,6.814,11.019,7.283,17.418,1.508c15.482-13.972,25.544-31.613,34.438-50.107
		c6.177-12.845,11.237-26.151,16.949-39.185c0.791-1.804,1.887-3.492,2.973-5.146c0.979-1.491,1.949-3.464,4.214-2.632
		c1.842,0.676,2.729,2.458,2.862,4.35c0.308,4.34-0.564,8.573-1.839,12.677c-11.233,36.178-22.563,72.327-33.771,108.513
		c-2.348,7.578-4.327,15.269-6.429,22.92c-0.758,2.761-1.982,5.239-3.937,7.346c-7.204,2.7-11.884,0.77-14.563-6.299
		c-2.135-5.63-5.263-10.729-8.322-15.838c-5.531-9.236-9.521-4.048-11.091-3.608c-2.14,0.6-5.835,6.409-7.482,9.691
		c-1.193,2.377-2.674,5.576-4.196,7.765c-2.59,3.724-5.836,5.938-10.6,4.687c-0.296-0.171-4.808-5.215-5.643-7.354
		c-1.957-5.013-6.474-11.2-11.59-14.634c-4.196-2.815-8.292-3.334-12.272-0.198c-3.616,2.849-6.08,6.951-7.644,11.198
		c-1.37,3.722-2.613,8.285-4.008,11.998c-1.016,2.706-2.149,5.183-5.461,5.557C218.133,179.986,217.081,179.051,216.591,179.113z"/>
	<path fill-rule="evenodd" fill="#FBB040" d="M344.207,389.119c3.232,5.911,1.899,8.184-4.947,8.714
		c-7.228,0.56-14.278-0.123-20.949-3.053c-4.431-1.946-8.681-1.709-12.959,0.239c-3.171,1.444-6.267,3.073-9.499,4.359
		c-8.475,3.376-16.695,3.368-24.789-1.548c-8.515-5.174-17.331-4.677-26.132-0.441c-8.363,4.024-16.96,4.44-25.584,1.06
		c-3.477-1.364-8.519-2.065-7.003-7.717c1.223-4.561,4.995-5.191,11.125-2.435c3.152,2.148,6.742,1.972,10.052,1.102
		c9.256-2.431,18.935-3.778,27.01-9.582c2.923-2.101,5.586-0.938,7.502,1.33c9.273,10.977,26.998,11.343,37.011-0.836
		c3.681-4.478,5.727-4.396,9.914-0.283c5.311,5.215,11.302,7.809,18.841,7.086C337.341,386.774,341.168,386.263,344.207,389.119z"/>
	<path fill-rule="evenodd" fill="#FFFFFF" d="M351.558,421.984c0.393-6.999,0.551-13.998,0.063-20.999
		C353.313,407.99,353.366,414.989,351.558,421.984z"/>
	<path fill-rule="evenodd" fill="#FFFFFF" d="M314.213,469.853c1.451-0.863,2.902-1.727,4.354-2.59
		C317.943,469.517,316.146,469.797,314.213,469.853z"/>
	<path fill-rule="evenodd" fill="#FFFFFF" d="M212.573,383.988c-0.28,1.468-0.889,2.763-1.997,3.795
		C210.477,386.116,210.844,384.694,212.573,383.988z"/>
	<path fill-rule="evenodd" fill="#FBB040" d="M334.731,423.766c-6.973,0.282-13.571-0.907-19.337-5.162
		c-3.136-2.315-6.244-1.903-9.228,0.244c-11.313,8.143-23.917,6.632-36.514,4.816c-2.521-0.363-4.52-2.138-6.137-4.087
		c-2.469-2.974-5.109-3.185-8.311-1.152c-10.947,6.948-23.061,7.892-35.531,6.525c-5.312-0.582-10.448-5.482-11.054-10.098
		c-0.542-4.119,0.677-5.225,4.544-3.869c15.093,5.29,29.408,3.674,43.106-4.511c5.089-3.04,6.914-2.649,10.3,2.414
		c2.534,3.79,5.905,5.689,10.296,6.123c11.255,1.111,21.699,0.118,28.487-10.708c1.738-2.771,3.733-2.486,6.211-0.618
		c3.175,2.393,6.539,4.587,10.019,6.511c7.462,4.125,15.273,5.673,23.397,1.932c3.831-1.765,4.781-0.131,4.535,3.391
		c-0.348,4.981-2.942,7.668-8.292,8.213C339.081,423.948,336.897,423.766,334.731,423.766z"/>
	<path fill-rule="evenodd" fill="#FBB040" d="M225.552,448.036c-4.644-0.767-6.816-4.352-9.026-7.901
		c-1.062-1.705-0.411-2.512,1.404-2.468c1.823,0.044,3.682,0.1,5.455,0.478c11.907,2.532,22.743-0.416,33.018-6.308
		c6.932-3.974,7.012-3.983,12.633,1.71c8.857,8.972,24.087,8.853,34.93-0.297c1.27-1.071,2.43-2.272,3.667-3.385
		c2.087-1.877,4.183-2.516,6.618-0.413c7.229,6.239,15.303,9.761,25.179,8.167c2.911-0.471,3.801,1.011,2.114,3.896
		c-4.069,6.965-13.521,9.732-20.324,4.896c-5.764-4.098-10.723-3.742-16.6-0.552c-13.298,7.221-26.565,7.976-39.411-1.401
		c-3.269-2.387-6.902-2.329-10.35-0.406c-8.85,4.935-18.338,5.316-28.069,4.229c2.132-1.771,4.682-0.117,6.349-0.787
		c1.256-0.118,0.887-0.714,0.685-0.602C231.239,448.333,228.19,446.649,225.552,448.036z"/>
	<path fill-rule="evenodd" fill="#FBB040" d="M250.606,469.814c-0.33,0.027-0.659,0.037-0.989,0.029
		c-1.486-1.761-4.308-1.695-5.779-4.527c8.476,0.079,14.802-3.903,20.481-9.415c2.754-2.671,5.249-0.852,7.221,1.413
		c3.124,3.588,6.64,6.525,11.43,7.465c4.813,0.944,9.23,0.29,12.763-3.557c1.457-1.586,3.035-3.063,4.571-4.577
		c2.726-2.686,5.571-3.204,8.823-0.764c2.376,1.783,4.928,3.337,7.435,4.941c1.672,1.069,2.261,2.326,0.975,4.069
		c-3.37,1.408-6.439,4.296-10.559,1.832c-0.822-0.492-1.894,0.269-2.695,0.92c-5.085,4.124-11.229,5.578-17.439,6.744
		c-5.549,1.041-10.871,0.844-15.464-3.221c-4.89-4.325-10.342-3.439-15.83-1.283C253.902,469.688,252.252,469.832,250.606,469.814z"
		/>
	<path fill-rule="evenodd" d="M250.606,469.814"/>
</g>
<path fill-rule="evenodd" fill="none" d="M338.652,372.417c0.325,0.688,0.299,0.895,0.855,1.44c0.318,0.313,0.708,0.559,0.645,1.06"
	/>
<path fill-rule="evenodd" d="M339.406,372.01c0.029,0.023,0.351,0.441,0.424,0.682c-0.146-0.31-0.223-0.372-0.471-0.591
	c0.084,0.119,0.15,0.245,0.228,0.367c-0.154-0.25-0.25-0.261-0.428-0.388"/>
<path fill-rule="evenodd" d="M339.657,373.689"/>
<path fill-rule="evenodd" d="M340.235,374.167"/>
<rect x="338.652" y="371.343" fill-rule="evenodd" fill="#FFFFFF" width="4.348" height="1.349"/>
<rect x="343.417" y="374.167" fill-rule="evenodd" fill="#FFFFFF" width="4.348" height="1.349"/>
<rect x="340.152" y="372.01" fill-rule="evenodd" width="1.848" height="2.907"/>
<rect x="339.406" y="371.343" fill-rule="evenodd" fill="#FFFFFF" width="3.094" height="2.824"/>
<polygon fill-rule="evenodd" fill="#FFFFFF" points="342.289,374.816 339.41,376.608 337.877,371.726 342.289,371.992 "/>
<rect x="338.235" y="371.651" fill-rule="evenodd" fill="#FFFFFF" width="1.848" height="2.079"/>
<polygon fill-rule="evenodd" fill="#FFFFFF" points="342.284,376.37 339.621,376.626 339.621,373.298 342.284,373.042 "/>
</svg>
