<?xml version="1.0" encoding="utf-8"?>
<!-- Generator: Adobe Illustrator 16.0.0, SVG Export Plug-In . SVG Version: 6.00 Build 0)  -->
<!DOCTYPE svg PUBLIC "-//W3C//DTD SVG 1.1//EN" "http://www.w3.org/Graphics/SVG/1.1/DTD/svg11.dtd">
<svg version="1.1" id="Layer_1" xmlns="http://www.w3.org/2000/svg" xmlns:xlink="http://www.w3.org/1999/xlink" x="0px" y="0px"
	 width="550px" height="550px" viewBox="0 0 550 550" enable-background="new 0 0 550 550" xml:space="preserve">
<g>
	<path fill="#374EA1" d="M212.91,384.82c0.22-0.359,0.41-0.739,0.54-1.141c14.01-23.68,35.18-35.699,62.28-36.609
		c26.77-0.899,53.57-0.71,80.35-0.931c8.82-0.069,17.66-0.239,26.471,0.17c18.79,0.86,37.59,0.171,56.38,0.44
		c3.96,0.05,5.78-2.55,5.33-6.261c-1.49-12.181-2.271-24.449-5.431-36.42c-10.08-38.229-29.909-69.979-61.521-94.14
		c-15.189-11.62-32.04-19.99-49.819-26.71c-6.91-3.72-14.29-5.78-22.09-6.71c-5.78-0.68-11.61-0.58-17.341-1.36
		c-12.129-1.66-24.561-0.58-36.16,1.04c-5.15,0.71-10.26,0.92-15.44,2.15c-4.37,0.92-8.67,1.6-12,2.71
		c-2.56,0.86-3.26,1.3-4.55,1.97c0.01-0.01,0.01-0.02,0.01-0.02c-0.21,0.09-0.97,0.449-2,0.8c-21.72,7.42-40.93,19.37-57.52,35.15
		c-40.91,38.899-59.73,86.5-54.2,142.829c3.92,40.021,20.2,74.75,48.45,103.681c29.319,30.021,65.34,45.479,106.74,49.14
		c22.989,2.03,45.41-0.811,67.25-8.46c25.021-8.76,47.58-21.67,66.08-40.68c23.609-24.25,39.239-53.04,46.101-86.38
		c1.239-6.011,0.08-7.641-5.99-7.65c-31.489-0.05-62.97-0.05-94.449-0.06c-0.95,0-2.021-0.381-2.75,0.64
		c0.699,0.55,1.51,0.54,2.359,0.53h1.471c-1.5,0.17-2.49,0.84-1.86,3.43c0.67,1.3,1.341,2.601,2,3.91
		c4.32,6.8,7.04,14.271,9.181,21.99c0.67,6.39,0.649,12.79,0.04,19.209c-2.011,11-5.819,21.091-13.649,29.479
		c-5.271,5.66-11.29,10.28-17.689,14.49c-0.551,0.46-1.051,0.97-1.511,1.521c-1.189,1.689-3.029,2.09-4.87,2.47
		c-20.649,9.471-41.62,10.16-62.891,2.19c-23.239-9.811-39-25.931-43.529-51.551c-1.9-10.75,1.55-20.699,4.399-30.76
		C211.49,387.46,211.95,386.03,212.91,384.82z M292.667,261.833c11.721,0,21.501,9.779,21.501,21.5c0,11.72-9.78,21.5-21.501,21.5
		c-11.72,0-21.5-9.78-21.5-21.5C271.167,271.613,280.947,261.833,292.667,261.833z M430.29,372.46c0.91,0,1.82,0.09,2.729,0.021
		c-1.029,0.13-2.1,0.011-3.14,0.011H359.19C382.89,372.44,406.591,372.5,430.29,372.46z"/>
	<path fill="#FBB040" d="M216.591,179.113c-2.063-0.789-2.195-2.827-2.724-4.478C199.49,129.73,185.129,84.82,170.902,39.868
		c-1.031-3.26-1.707-6.79-1.154-10.306c0.327-2.083,0.411-4.599,3.063-5.177c2.828-0.616,4.318,1.382,5.216,3.624
		c2.582,6.447,4.939,12.984,7.53,19.43c8.293,20.637,17.444,40.834,31.377,58.457c3.183,4.025,6.57,7.942,10.256,11.508
		c6.36,6.156,11.283,5.486,16.49-1.645c5.948-8.147,7.817-17.704,10.056-27.23c4.422-18.821,4.919-38.05,6.492-57.169
		c0.326-3.955,1.77-7.36,4.036-10.524c0.848-1.186,1.349-3.064,3.094-2.831c2.041,0.272,2.772,2.105,3.229,3.97
		c1.142,4.665,1.995,9.357,2.258,14.173c1.412,25.962,6.246,51.19,16.607,75.191c0.845,1.956,1.872,3.9,3.165,5.584
		c5.231,6.813,11.02,7.283,17.418,1.508c15.482-13.972,25.544-31.613,34.438-50.106c6.177-12.846,11.237-26.151,16.949-39.186
		c0.791-1.804,1.887-3.492,2.973-5.146c0.979-1.491,1.949-3.465,4.214-2.633c1.842,0.677,2.729,2.458,2.862,4.351
		c0.308,4.34-0.564,8.573-1.839,12.677c-11.233,36.178-22.563,72.327-33.771,108.513c-2.348,7.578-4.327,15.27-6.429,22.92
		c-0.758,2.762-1.982,5.239-3.938,7.347c-7.204,2.7-11.884,0.77-14.563-6.299c-2.135-5.631-5.263-10.729-8.322-15.839
		c-5.531-9.235-9.521-4.048-11.091-3.607c-2.141,0.6-5.835,6.409-7.482,9.69c-1.192,2.377-2.674,5.576-4.196,7.766
		c-2.59,3.724-5.836,5.938-10.6,4.687c-0.296-0.171-4.808-5.215-5.643-7.354c-1.957-5.014-6.475-11.2-11.591-14.634
		c-4.195-2.815-8.292-3.334-12.271-0.198c-3.616,2.849-6.08,6.951-7.645,11.198c-1.369,3.722-2.612,8.284-4.008,11.998
		c-1.016,2.705-2.148,5.183-5.461,5.557C218.133,179.986,217.081,179.051,216.591,179.113z"/>
	<path fill="#FBB040" d="M344.207,389.119c3.232,5.91,1.899,8.184-4.946,8.714c-7.229,0.56-14.278-0.123-20.949-3.054
		c-4.431-1.945-8.681-1.709-12.959,0.239c-3.171,1.444-6.267,3.073-9.499,4.359c-8.476,3.376-16.695,3.368-24.789-1.548
		c-8.516-5.175-17.331-4.678-26.132-0.441c-8.363,4.024-16.96,4.44-25.584,1.06c-3.478-1.363-8.52-2.064-7.003-7.717
		c1.223-4.561,4.994-5.19,11.125-2.435c3.151,2.147,6.741,1.972,10.052,1.102c9.256-2.431,18.935-3.777,27.01-9.582
		c2.923-2.101,5.586-0.938,7.502,1.33c9.273,10.978,26.998,11.343,37.012-0.836c3.681-4.478,5.727-4.396,9.913-0.283
		c5.312,5.216,11.303,7.81,18.842,7.086C337.342,386.774,341.169,386.263,344.207,389.119z"/>
	<path fill="#384A9F" d="M351.558,421.984c0.393-6.999,0.551-13.998,0.063-20.999C353.313,407.99,353.366,414.989,351.558,421.984z"
		/>
	<path fill="#374EA1" d="M314.214,469.853c1.45-0.863,2.901-1.727,4.354-2.59C317.943,469.517,316.146,469.797,314.214,469.853z"/>
	<path fill="#395AA9" d="M212.573,383.988c-0.28,1.469-0.889,2.764-1.997,3.796C210.477,386.116,210.844,384.694,212.573,383.988z"
		/>
	<path fill="#FBB040" d="M334.731,423.766c-6.973,0.282-13.571-0.907-19.337-5.162c-3.136-2.314-6.244-1.902-9.229,0.244
		c-11.313,8.143-23.917,6.632-36.514,4.815c-2.521-0.362-4.521-2.138-6.137-4.086c-2.47-2.975-5.109-3.186-8.312-1.152
		c-10.947,6.947-23.061,7.892-35.531,6.524c-5.312-0.582-10.447-5.481-11.054-10.098c-0.542-4.119,0.677-5.225,4.544-3.869
		c15.093,5.29,29.408,3.675,43.106-4.511c5.089-3.04,6.914-2.648,10.3,2.414c2.534,3.79,5.905,5.689,10.296,6.123
		c11.255,1.111,21.699,0.118,28.487-10.708c1.738-2.771,3.733-2.486,6.211-0.618c3.175,2.394,6.539,4.587,10.019,6.511
		c7.463,4.125,15.273,5.674,23.397,1.933c3.831-1.766,4.781-0.131,4.535,3.391c-0.349,4.981-2.942,7.668-8.292,8.213
		C339.081,423.948,336.897,423.766,334.731,423.766z"/>
	<path fill="#FBB040" d="M225.552,448.035c-4.645-0.767-6.816-4.352-9.026-7.9c-1.063-1.705-0.411-2.513,1.404-2.468
		c1.822,0.044,3.682,0.1,5.455,0.478c11.906,2.532,22.742-0.416,33.018-6.308c6.932-3.975,7.012-3.983,12.633,1.71
		c8.857,8.972,24.087,8.853,34.931-0.297c1.27-1.071,2.43-2.272,3.667-3.386c2.087-1.877,4.183-2.516,6.618-0.413
		c7.229,6.239,15.303,9.762,25.179,8.167c2.911-0.471,3.801,1.012,2.114,3.896c-4.069,6.965-13.521,9.731-20.324,4.896
		c-5.765-4.098-10.724-3.741-16.601-0.552c-13.298,7.221-26.564,7.977-39.411-1.401c-3.269-2.387-6.901-2.328-10.35-0.405
		c-8.851,4.935-18.338,5.315-28.069,4.229c2.132-1.771,4.683-0.117,6.35-0.787c1.256-0.118,0.887-0.714,0.685-0.602
		C231.239,448.332,228.19,446.649,225.552,448.035z"/>
	<path fill="#FBB040" d="M250.606,469.814c-0.33,0.027-0.659,0.037-0.989,0.029c-1.486-1.762-4.308-1.695-5.779-4.527
		c8.477,0.079,14.803-3.903,20.481-9.415c2.754-2.671,5.249-0.852,7.221,1.413c3.124,3.588,6.641,6.525,11.431,7.465
		c4.813,0.944,9.229,0.29,12.763-3.557c1.457-1.586,3.035-3.063,4.571-4.577c2.726-2.687,5.571-3.204,8.823-0.764
		c2.376,1.782,4.928,3.337,7.435,4.94c1.672,1.069,2.261,2.326,0.975,4.069c-3.369,1.408-6.438,4.296-10.559,1.832
		c-0.822-0.492-1.894,0.269-2.695,0.92c-5.085,4.124-11.229,5.578-17.438,6.744c-5.55,1.041-10.871,0.844-15.465-3.222
		c-4.89-4.324-10.342-3.438-15.83-1.282C253.902,469.688,252.252,469.831,250.606,469.814z"/>
	<path d="M250.606,469.814"/>
</g>
<path fill="none" d="M338.652,372.417c0.325,0.688,0.299,0.895,0.855,1.439c0.317,0.313,0.708,0.56,0.645,1.061"/>
<path d="M339.406,372.01c0.029,0.023,0.352,0.441,0.424,0.682c-0.146-0.31-0.223-0.372-0.471-0.591
	c0.084,0.119,0.15,0.245,0.229,0.367c-0.154-0.25-0.25-0.261-0.429-0.388"/>
<path d="M339.657,373.689"/>
<path d="M340.235,374.167"/>
<rect x="338.652" y="371.343" fill="#FFFFFF" width="4.348" height="1.349"/>
<rect x="343.418" y="374.167" fill="#36489E" width="4.348" height="1.349"/>
<rect x="340.152" y="372.01" width="1.848" height="2.907"/>
<rect x="339.406" y="371.343" fill="#FFFFFF" width="3.094" height="2.824"/>
<polygon fill="#FFFFFF" points="342.289,374.816 339.41,376.608 337.878,371.726 342.289,371.992 "/>
<rect x="338.235" y="371.651" fill="#FFFFFF" width="1.848" height="2.079"/>
<polygon fill="#36489E" points="342.284,376.37 339.621,376.626 339.621,373.298 342.284,373.042 "/>
</svg>
